<svg id="visual" viewBox="0 0 960 540" width="960" height="540" xmlns="http://www.w3.org/2000/svg" xmlns:xlink="http://www.w3.org/1999/xlink" version="1.1"><rect x="0" y="0" width="960" height="540" fill="#eeeeee"></rect><path d="M0 77L22.8 82.3C45.7 87.7 91.3 98.3 137 93.5C182.7 88.7 228.3 68.3 274 69.5C319.7 70.7 365.3 93.3 411.2 98.3C457 103.3 503 90.7 548.8 84.8C594.7 79 640.3 80 686 83.2C731.7 86.3 777.3 91.7 823 85.7C868.7 79.7 914.3 62.3 937.2 53.7L960 45L960 0L937.2 0C914.3 0 868.7 0 823 0C777.3 0 731.7 0 686 0C640.3 0 594.7 0 548.8 0C503 0 457 0 411.2 0C365.3 0 319.7 0 274 0C228.3 0 182.7 0 137 0C91.3 0 45.7 0 22.8 0L0 0Z" fill="#0066FF" stroke-linecap="round" stroke-linejoin="miter"></path></svg>