<svg id="visual" viewBox="0 0 540 960" width="540" height="960" xmlns="http://www.w3.org/2000/svg" xmlns:xlink="http://www.w3.org/1999/xlink" version="1.1"><rect x="0" y="0" width="540" height="960" fill="#002233"></rect><path d="M0 57L12.8 63.5C25.7 70 51.3 83 77 91.7C102.7 100.3 128.3 104.7 154 101.3C179.7 98 205.3 87 231.2 90.3C257 93.7 283 111.3 308.8 108.5C334.7 105.7 360.3 82.3 386 76.3C411.7 70.3 437.3 81.7 463 91C488.7 100.3 514.3 107.7 527.2 111.3L540 115L540 0L527.2 0C514.3 0 488.7 0 463 0C437.3 0 411.7 0 386 0C360.3 0 334.7 0 308.8 0C283 0 257 0 231.2 0C205.3 0 179.7 0 154 0C128.3 0 102.7 0 77 0C51.3 0 25.7 0 12.8 0L0 0Z" fill="#0066FF" stroke-linecap="round" stroke-linejoin="miter"></path></svg>