<svg id="visual" viewBox="0 0 540 960" width="540" height="960" xmlns="http://www.w3.org/2000/svg" xmlns:xlink="http://www.w3.org/1999/xlink" version="1.1"><rect x="0" y="0" width="540" height="960" fill="#eeeeee"></rect><path d="M0 138L12.8 147.3C25.7 156.7 51.3 175.3 77 166.7C102.7 158 128.3 122 154 124.3C179.7 126.7 205.3 167.3 231.2 176.3C257 185.3 283 162.7 308.8 152.3C334.7 142 360.3 144 386 149.5C411.7 155 437.3 164 463 153C488.7 142 514.3 111 527.2 95.5L540 80L540 0L527.2 0C514.3 0 488.7 0 463 0C437.3 0 411.7 0 386 0C360.3 0 334.7 0 308.8 0C283 0 257 0 231.2 0C205.3 0 179.7 0 154 0C128.3 0 102.7 0 77 0C51.3 0 25.7 0 12.8 0L0 0Z" fill="#0066FF" stroke-linecap="round" stroke-linejoin="miter"></path></svg>